STARTFONT 2.1
COMMENT
COMMENT Converted from OpenType font "Q:\font stuff\winfont\OrbonITCStd.otf" by "otf2bdf 3.0".
COMMENT
FONT -FreeType-Orbon ITC Std-Medium-R-Normal--16-160-72-72-P-45-ISO10646-1
SIZE 16 72 72
FONTBOUNDINGBOX 17 19 -3 -4
STARTPROPERTIES 19
FOUNDRY "FreeType"
FAMILY_NAME "Orbon ITC Std"
WEIGHT_NAME "Medium"
SLANT "R"
SETWIDTH_NAME "Normal"
ADD_STYLE_NAME ""
PIXEL_SIZE 16
POINT_SIZE 160
RESOLUTION_X 72
RESOLUTION_Y 72
SPACING "P"
AVERAGE_WIDTH 45
CHARSET_REGISTRY "ISO10646"
CHARSET_ENCODING "1"
FONT_ASCENT 10
FONT_DESCENT 3
COPYRIGHT "Copyright 1997 International Typeface Corporation. All rights reserved."
_OTF_FONTFILE "Q:\font stuff\winfont\OrbonITCStd.otf"
_OTF_PSNAME "OrbonITCStd"
ENDPROPERTIES
CHARS 252
STARTCHAR 0020
ENCODING 32
SWIDTH 187 0
DWIDTH 3 0
BBX 0 0 0 0
BITMAP
ENDCHAR
STARTCHAR 0021
ENCODING 33
SWIDTH 125 0
DWIDTH 2 0
BBX 1 12 0 0
BITMAP
80
80
80
80
80
80
80
80
80
00
80
80
ENDCHAR
STARTCHAR 0022
ENCODING 34
SWIDTH 187 0
DWIDTH 3 0
BBX 3 3 0 10
BITMAP
A0
A0
A0
ENDCHAR
STARTCHAR 0023
ENCODING 35
SWIDTH 375 0
DWIDTH 6 0
BBX 5 8 0 4
BITMAP
50
50
F8
50
50
F8
50
50
ENDCHAR
STARTCHAR 0024
ENCODING 36
SWIDTH 250 0
DWIDTH 4 0
BBX 4 12 0 0
BITMAP
20
20
F0
80
80
F0
10
90
90
60
20
20
ENDCHAR
STARTCHAR 0025
ENCODING 37
SWIDTH 687 0
DWIDTH 11 0
BBX 10 12 0 0
BITMAP
E100
A200
A200
A400
A400
ABC0
4A40
1240
1240
2240
4240
4180
ENDCHAR
STARTCHAR 0026
ENCODING 38
SWIDTH 375 0
DWIDTH 6 0
BBX 5 12 1 -1
BITMAP
F0
90
90
80
80
78
90
90
90
90
90
60
ENDCHAR
STARTCHAR 0027
ENCODING 39
SWIDTH 125 0
DWIDTH 2 0
BBX 1 3 0 10
BITMAP
80
80
80
ENDCHAR
STARTCHAR 0028
ENCODING 40
SWIDTH 187 0
DWIDTH 3 0
BBX 2 12 0 0
BITMAP
40
80
80
80
80
80
80
80
80
80
80
40
ENDCHAR
STARTCHAR 0029
ENCODING 41
SWIDTH 187 0
DWIDTH 3 0
BBX 2 12 1 0
BITMAP
80
80
40
40
40
40
40
40
40
40
80
80
ENDCHAR
STARTCHAR 002A
ENCODING 42
SWIDTH 250 0
DWIDTH 4 0
BBX 3 4 0 8
BITMAP
40
A0
40
20
ENDCHAR
STARTCHAR 002B
ENCODING 43
SWIDTH 812 0
DWIDTH 13 0
BBX 9 11 2 0
BITMAP
0800
0800
0800
0800
0800
FF80
0800
0800
0800
0800
0800
ENDCHAR
STARTCHAR 002C
ENCODING 44
SWIDTH 125 0
DWIDTH 2 0
BBX 1 2 1 -2
BITMAP
80
80
ENDCHAR
STARTCHAR 002D
ENCODING 45
SWIDTH 187 0
DWIDTH 3 0
BBX 2 1 0 4
BITMAP
C0
ENDCHAR
STARTCHAR 002E
ENCODING 46
SWIDTH 125 0
DWIDTH 2 0
BBX 1 2 1 1
BITMAP
80
80
ENDCHAR
STARTCHAR 002F
ENCODING 47
SWIDTH 375 0
DWIDTH 6 0
BBX 5 15 0 -2
BITMAP
08
08
10
10
10
20
20
20
20
40
40
40
40
80
80
ENDCHAR
STARTCHAR 0030
ENCODING 48
SWIDTH 312 0
DWIDTH 5 0
BBX 4 12 1 0
BITMAP
F0
90
90
90
90
90
90
90
90
90
90
60
ENDCHAR
STARTCHAR 0031
ENCODING 49
SWIDTH 187 0
DWIDTH 3 0
BBX 2 12 0 0
BITMAP
C0
40
40
40
40
40
40
40
40
40
40
40
ENDCHAR
STARTCHAR 0032
ENCODING 50
SWIDTH 312 0
DWIDTH 5 0
BBX 4 12 1 0
BITMAP
F0
90
90
90
10
20
60
40
80
80
80
F0
ENDCHAR
STARTCHAR 0033
ENCODING 51
SWIDTH 312 0
DWIDTH 5 0
BBX 5 12 0 0
BITMAP
F8
88
88
08
08
70
08
08
88
88
D8
70
ENDCHAR
STARTCHAR 0034
ENCODING 52
SWIDTH 312 0
DWIDTH 5 0
BBX 5 12 0 0
BITMAP
90
90
90
90
90
90
90
90
F8
10
10
10
ENDCHAR
STARTCHAR 0035
ENCODING 53
SWIDTH 312 0
DWIDTH 5 0
BBX 4 12 1 0
BITMAP
F0
80
80
80
80
F0
10
10
90
90
90
60
ENDCHAR
STARTCHAR 0036
ENCODING 54
SWIDTH 312 0
DWIDTH 5 0
BBX 4 12 1 0
BITMAP
F0
90
90
90
80
F0
90
90
90
90
90
60
ENDCHAR
STARTCHAR 0037
ENCODING 55
SWIDTH 312 0
DWIDTH 5 0
BBX 4 12 0 0
BITMAP
F0
10
10
10
20
20
20
20
20
40
40
40
ENDCHAR
STARTCHAR 0038
ENCODING 56
SWIDTH 312 0
DWIDTH 5 0
BBX 4 12 1 0
BITMAP
F0
90
90
90
90
60
90
90
90
90
90
60
ENDCHAR
STARTCHAR 0039
ENCODING 57
SWIDTH 312 0
DWIDTH 5 0
BBX 4 12 1 0
BITMAP
F0
90
90
90
90
90
F0
10
10
90
90
60
ENDCHAR
STARTCHAR 003A
ENCODING 58
SWIDTH 125 0
DWIDTH 2 0
BBX 1 8 0 0
BITMAP
80
80
00
00
00
00
80
80
ENDCHAR
STARTCHAR 003B
ENCODING 59
SWIDTH 125 0
DWIDTH 2 0
BBX 1 9 0 -2
BITMAP
80
80
80
00
00
00
00
80
80
ENDCHAR
STARTCHAR 003C
ENCODING 60
SWIDTH 812 0
DWIDTH 13 0
BBX 9 9 2 1
BITMAP
0080
0300
0C00
3000
C000
6000
1800
0600
0180
ENDCHAR
STARTCHAR 003D
ENCODING 61
SWIDTH 812 0
DWIDTH 13 0
BBX 9 4 2 3
BITMAP
FF80
0000
0000
FF80
ENDCHAR
STARTCHAR 003E
ENCODING 62
SWIDTH 812 0
DWIDTH 13 0
BBX 9 9 2 1
BITMAP
8000
6000
1800
0600
0180
0300
0C00
3000
C000
ENDCHAR
STARTCHAR 003F
ENCODING 63
SWIDTH 312 0
DWIDTH 5 0
BBX 4 12 0 0
BITMAP
F0
90
90
10
10
70
40
40
40
00
40
40
ENDCHAR
STARTCHAR 0040
ENCODING 64
SWIDTH 500 0
DWIDTH 8 0
BBX 7 10 0 -2
BITMAP
7E
82
BE
A6
A6
A6
A6
9A
40
30
ENDCHAR
STARTCHAR 0041
ENCODING 65
SWIDTH 312 0
DWIDTH 5 0
BBX 3 12 1 0
BITMAP
E0
A0
A0
A0
A0
A0
A0
E0
A0
A0
A0
A0
ENDCHAR
STARTCHAR 0042
ENCODING 66
SWIDTH 312 0
DWIDTH 5 0
BBX 4 12 1 0
BITMAP
F0
90
90
90
90
E0
90
90
90
90
90
60
ENDCHAR
STARTCHAR 0043
ENCODING 67
SWIDTH 312 0
DWIDTH 5 0
BBX 4 12 1 0
BITMAP
F0
90
90
80
80
80
80
90
90
90
90
60
ENDCHAR
STARTCHAR 0044
ENCODING 68
SWIDTH 312 0
DWIDTH 5 0
BBX 4 12 1 0
BITMAP
F0
90
90
90
90
90
90
90
90
90
90
60
ENDCHAR
STARTCHAR 0045
ENCODING 69
SWIDTH 250 0
DWIDTH 4 0
BBX 3 12 1 0
BITMAP
E0
80
80
80
80
E0
80
80
80
80
80
E0
ENDCHAR
STARTCHAR 0046
ENCODING 70
SWIDTH 250 0
DWIDTH 4 0
BBX 3 12 1 0
BITMAP
E0
80
80
80
80
E0
80
80
80
80
80
80
ENDCHAR
STARTCHAR 0047
ENCODING 71
SWIDTH 312 0
DWIDTH 5 0
BBX 4 12 1 0
BITMAP
F0
90
90
80
80
80
B0
90
90
90
90
60
ENDCHAR
STARTCHAR 0048
ENCODING 72
SWIDTH 312 0
DWIDTH 5 0
BBX 4 12 1 0
BITMAP
90
90
90
90
90
F0
90
90
90
90
90
90
ENDCHAR
STARTCHAR 0049
ENCODING 73
SWIDTH 125 0
DWIDTH 2 0
BBX 1 12 1 0
BITMAP
80
80
80
80
80
80
80
80
80
80
80
80
ENDCHAR
STARTCHAR 004A
ENCODING 74
SWIDTH 125 0
DWIDTH 2 0
BBX 2 14 0 -2
BITMAP
40
40
40
40
40
40
40
40
40
40
40
40
40
80
ENDCHAR
STARTCHAR 004B
ENCODING 75
SWIDTH 312 0
DWIDTH 5 0
BBX 3 12 1 0
BITMAP
A0
A0
A0
A0
A0
C0
E0
A0
A0
A0
A0
A0
ENDCHAR
STARTCHAR 004C
ENCODING 76
SWIDTH 250 0
DWIDTH 4 0
BBX 3 12 0 0
BITMAP
80
80
80
80
80
80
80
80
80
80
80
E0
ENDCHAR
STARTCHAR 004D
ENCODING 77
SWIDTH 437 0
DWIDTH 7 0
BBX 6 12 1 0
BITMAP
8C
DC
D4
A4
A4
A4
A4
A4
A4
A4
A4
A4
ENDCHAR
STARTCHAR 004E
ENCODING 78
SWIDTH 312 0
DWIDTH 5 0
BBX 4 12 1 0
BITMAP
90
D0
D0
B0
B0
90
90
90
90
90
90
90
ENDCHAR
STARTCHAR 004F
ENCODING 79
SWIDTH 312 0
DWIDTH 5 0
BBX 4 12 1 0
BITMAP
F0
90
90
90
90
90
90
90
90
90
90
60
ENDCHAR
STARTCHAR 0050
ENCODING 80
SWIDTH 312 0
DWIDTH 5 0
BBX 3 12 1 0
BITMAP
E0
A0
A0
A0
A0
A0
A0
C0
80
80
80
80
ENDCHAR
STARTCHAR 0051
ENCODING 81
SWIDTH 312 0
DWIDTH 5 0
BBX 4 14 1 -2
BITMAP
F0
90
90
90
90
90
90
90
90
90
90
60
40
40
ENDCHAR
STARTCHAR 0052
ENCODING 82
SWIDTH 312 0
DWIDTH 5 0
BBX 3 12 1 0
BITMAP
E0
A0
A0
A0
A0
A0
C0
A0
A0
A0
A0
A0
ENDCHAR
STARTCHAR 0053
ENCODING 83
SWIDTH 312 0
DWIDTH 5 0
BBX 4 12 1 0
BITMAP
F0
90
90
80
80
F0
10
10
90
90
90
60
ENDCHAR
STARTCHAR 0054
ENCODING 84
SWIDTH 250 0
DWIDTH 4 0
BBX 4 12 0 0
BITMAP
F0
20
20
20
20
20
20
20
20
20
20
20
ENDCHAR
STARTCHAR 0055
ENCODING 85
SWIDTH 312 0
DWIDTH 5 0
BBX 4 12 1 0
BITMAP
90
90
90
90
90
90
90
90
90
90
90
F0
ENDCHAR
STARTCHAR 0056
ENCODING 86
SWIDTH 312 0
DWIDTH 5 0
BBX 4 12 1 0
BITMAP
90
90
90
90
90
90
90
90
90
90
90
60
ENDCHAR
STARTCHAR 0057
ENCODING 87
SWIDTH 500 0
DWIDTH 8 0
BBX 6 12 1 0
BITMAP
A4
A4
A4
A4
A4
A4
A4
A4
A4
A4
A4
58
ENDCHAR
STARTCHAR 0058
ENCODING 88
SWIDTH 312 0
DWIDTH 5 0
BBX 3 12 1 0
BITMAP
A0
A0
A0
A0
A0
40
A0
A0
A0
A0
A0
A0
ENDCHAR
STARTCHAR 0059
ENCODING 89
SWIDTH 312 0
DWIDTH 5 0
BBX 4 12 1 0
BITMAP
90
90
90
90
90
90
90
90
60
40
40
40
ENDCHAR
STARTCHAR 005A
ENCODING 90
SWIDTH 312 0
DWIDTH 5 0
BBX 4 12 0 0
BITMAP
F0
10
10
20
20
20
40
40
C0
80
80
F0
ENDCHAR
STARTCHAR 005B
ENCODING 91
SWIDTH 125 0
DWIDTH 2 0
BBX 2 15 0 -2
BITMAP
C0
80
80
80
80
80
80
80
80
80
80
80
80
80
C0
ENDCHAR
STARTCHAR 005C
ENCODING 92
SWIDTH 375 0
DWIDTH 6 0
BBX 5 15 0 -2
BITMAP
80
80
40
40
40
40
20
20
20
20
10
10
10
08
08
ENDCHAR
STARTCHAR 005D
ENCODING 93
SWIDTH 125 0
DWIDTH 2 0
BBX 2 15 0 -2
BITMAP
C0
40
40
40
40
40
40
40
40
40
40
40
40
40
C0
ENDCHAR
STARTCHAR 005E
ENCODING 94
SWIDTH 250 0
DWIDTH 4 0
BBX 4 2 0 10
BITMAP
60
90
ENDCHAR
STARTCHAR 005F
ENCODING 95
SWIDTH 500 0
DWIDTH 8 0
BBX 8 1 0 -2
BITMAP
FF
ENDCHAR
STARTCHAR 0060
ENCODING 96
SWIDTH 500 0
DWIDTH 8 0
BBX 2 2 3 8
BITMAP
C0
40
ENDCHAR
STARTCHAR 0061
ENCODING 97
SWIDTH 250 0
DWIDTH 4 0
BBX 4 8 0 0
BITMAP
F0
10
10
F0
90
90
90
60
ENDCHAR
STARTCHAR 0062
ENCODING 98
SWIDTH 250 0
DWIDTH 4 0
BBX 4 12 0 0
BITMAP
80
80
80
80
F0
90
90
90
90
90
90
60
ENDCHAR
STARTCHAR 0063
ENCODING 99
SWIDTH 250 0
DWIDTH 4 0
BBX 4 8 0 0
BITMAP
F0
90
80
80
80
90
90
60
ENDCHAR
STARTCHAR 0064
ENCODING 100
SWIDTH 250 0
DWIDTH 4 0
BBX 4 12 0 0
BITMAP
10
10
10
10
F0
90
90
90
90
90
90
60
ENDCHAR
STARTCHAR 0065
ENCODING 101
SWIDTH 250 0
DWIDTH 4 0
BBX 4 8 0 0
BITMAP
F0
90
90
F0
80
90
90
60
ENDCHAR
STARTCHAR 0066
ENCODING 102
SWIDTH 187 0
DWIDTH 3 0
BBX 3 12 0 0
BITMAP
20
40
40
40
E0
40
40
40
40
40
40
40
ENDCHAR
STARTCHAR 0067
ENCODING 103
SWIDTH 312 0
DWIDTH 5 0
BBX 4 11 0 -3
BITMAP
F0
90
90
90
90
60
80
F0
10
90
60
ENDCHAR
STARTCHAR 0068
ENCODING 104
SWIDTH 250 0
DWIDTH 4 0
BBX 4 12 0 0
BITMAP
80
80
80
80
F0
90
90
90
90
90
90
90
ENDCHAR
STARTCHAR 0069
ENCODING 105
SWIDTH 125 0
DWIDTH 2 0
BBX 1 12 1 0
BITMAP
80
80
80
00
80
80
80
80
80
80
80
80
ENDCHAR
STARTCHAR 006A
ENCODING 106
SWIDTH 187 0
DWIDTH 3 0
BBX 2 15 0 -3
BITMAP
40
40
40
00
40
40
40
40
40
40
40
40
40
40
80
ENDCHAR
STARTCHAR 006B
ENCODING 107
SWIDTH 250 0
DWIDTH 4 0
BBX 3 12 1 0
BITMAP
80
80
80
80
A0
A0
A0
C0
A0
A0
A0
A0
ENDCHAR
STARTCHAR 006C
ENCODING 108
SWIDTH 125 0
DWIDTH 2 0
BBX 1 12 1 0
BITMAP
80
80
80
80
80
80
80
80
80
80
80
80
ENDCHAR
STARTCHAR 006D
ENCODING 109
SWIDTH 437 0
DWIDTH 7 0
BBX 6 8 0 0
BITMAP
FC
94
94
94
94
94
94
94
ENDCHAR
STARTCHAR 006E
ENCODING 110
SWIDTH 250 0
DWIDTH 4 0
BBX 3 8 1 0
BITMAP
E0
A0
A0
A0
A0
A0
A0
A0
ENDCHAR
STARTCHAR 006F
ENCODING 111
SWIDTH 250 0
DWIDTH 4 0
BBX 4 8 0 0
BITMAP
F0
90
90
90
90
90
90
60
ENDCHAR
STARTCHAR 0070
ENCODING 112
SWIDTH 250 0
DWIDTH 4 0
BBX 4 11 0 -3
BITMAP
F0
90
90
90
90
90
B0
C0
80
80
80
ENDCHAR
STARTCHAR 0071
ENCODING 113
SWIDTH 250 0
DWIDTH 4 0
BBX 4 11 0 -3
BITMAP
F0
90
90
90
90
90
D0
30
10
10
10
ENDCHAR
STARTCHAR 0072
ENCODING 114
SWIDTH 250 0
DWIDTH 4 0
BBX 3 8 1 0
BITMAP
E0
A0
80
80
80
80
80
80
ENDCHAR
STARTCHAR 0073
ENCODING 115
SWIDTH 250 0
DWIDTH 4 0
BBX 4 8 0 0
BITMAP
F0
80
80
F0
10
90
90
60
ENDCHAR
STARTCHAR 0074
ENCODING 116
SWIDTH 187 0
DWIDTH 3 0
BBX 3 11 0 0
BITMAP
40
40
40
E0
40
40
40
40
40
40
20
ENDCHAR
STARTCHAR 0075
ENCODING 117
SWIDTH 312 0
DWIDTH 5 0
BBX 3 8 1 0
BITMAP
A0
A0
A0
A0
A0
A0
A0
E0
ENDCHAR
STARTCHAR 0076
ENCODING 118
SWIDTH 250 0
DWIDTH 4 0
BBX 4 8 0 0
BITMAP
90
90
90
90
90
90
90
60
ENDCHAR
STARTCHAR 0077
ENCODING 119
SWIDTH 437 0
DWIDTH 7 0
BBX 6 8 0 0
BITMAP
94
94
94
94
94
94
94
68
ENDCHAR
STARTCHAR 0078
ENCODING 120
SWIDTH 250 0
DWIDTH 4 0
BBX 4 8 0 0
BITMAP
90
90
90
60
70
90
90
90
ENDCHAR
STARTCHAR 0079
ENCODING 121
SWIDTH 250 0
DWIDTH 4 0
BBX 4 11 0 -3
BITMAP
90
90
90
90
90
90
90
F0
10
10
10
ENDCHAR
STARTCHAR 007A
ENCODING 122
SWIDTH 250 0
DWIDTH 4 0
BBX 4 8 0 0
BITMAP
F0
10
20
20
40
80
80
F0
ENDCHAR
STARTCHAR 007B
ENCODING 123
SWIDTH 187 0
DWIDTH 3 0
BBX 3 15 0 -2
BITMAP
60
40
40
40
40
40
40
C0
40
40
40
40
40
40
60
ENDCHAR
STARTCHAR 007C
ENCODING 124
SWIDTH 187 0
DWIDTH 3 0
BBX 1 13 1 -1
BITMAP
80
80
80
80
80
80
80
80
80
80
80
80
80
ENDCHAR
STARTCHAR 007D
ENCODING 125
SWIDTH 187 0
DWIDTH 3 0
BBX 3 15 0 -2
BITMAP
C0
40
40
40
40
40
40
60
40
40
40
40
40
40
C0
ENDCHAR
STARTCHAR 007E
ENCODING 126
SWIDTH 812 0
DWIDTH 13 0
BBX 11 2 1 4
BITMAP
7C20
87C0
ENDCHAR
STARTCHAR 00A0
ENCODING 160
SWIDTH 187 0
DWIDTH 3 0
BBX 0 0 0 0
BITMAP
ENDCHAR
STARTCHAR 00A1
ENCODING 161
SWIDTH 125 0
DWIDTH 2 0
BBX 1 13 0 -4
BITMAP
80
80
80
80
80
80
80
80
80
80
80
80
80
ENDCHAR
STARTCHAR 00A2
ENCODING 162
SWIDTH 250 0
DWIDTH 4 0
BBX 4 12 0 0
BITMAP
20
20
F0
90
80
80
80
90
90
60
20
20
ENDCHAR
STARTCHAR 00A3
ENCODING 163
SWIDTH 312 0
DWIDTH 5 0
BBX 4 12 0 0
BITMAP
70
50
50
40
40
E0
40
40
40
40
40
70
ENDCHAR
STARTCHAR 00A4
ENCODING 164
SWIDTH 625 0
DWIDTH 10 0
BBX 9 9 0 3
BITMAP
8080
5D00
2200
4100
4100
4100
2200
5D00
8080
ENDCHAR
STARTCHAR 00A5
ENCODING 165
SWIDTH 375 0
DWIDTH 6 0
BBX 4 12 1 0
BITMAP
90
90
90
90
90
90
90
90
F0
20
F0
20
ENDCHAR
STARTCHAR 00A6
ENCODING 166
SWIDTH 500 0
DWIDTH 8 0
BBX 1 15 3 -3
BITMAP
80
80
80
80
80
80
00
00
00
80
80
80
80
80
80
ENDCHAR
STARTCHAR 00A7
ENCODING 167
SWIDTH 312 0
DWIDTH 5 0
BBX 3 12 1 0
BITMAP
E0
80
80
E0
A0
A0
A0
60
20
A0
A0
40
ENDCHAR
STARTCHAR 00A8
ENCODING 168
SWIDTH 500 0
DWIDTH 8 0
BBX 2 1 3 10
BITMAP
C0
ENDCHAR
STARTCHAR 00A9
ENCODING 169
SWIDTH 312 0
DWIDTH 5 0
BBX 4 7 0 5
BITMAP
F0
F0
F0
D0
F0
F0
F0
ENDCHAR
STARTCHAR 00AA
ENCODING 170
SWIDTH 187 0
DWIDTH 3 0
BBX 3 5 0 7
BITMAP
E0
20
E0
A0
C0
ENDCHAR
STARTCHAR 00AB
ENCODING 171
SWIDTH 250 0
DWIDTH 4 0
BBX 4 4 0 3
BITMAP
60
A0
A0
50
ENDCHAR
STARTCHAR 00AC
ENCODING 172
SWIDTH 812 0
DWIDTH 13 0
BBX 10 5 2 2
BITMAP
FFC0
0040
0040
0040
0040
ENDCHAR
STARTCHAR 00AD
ENCODING 173
SWIDTH 187 0
DWIDTH 3 0
BBX 2 1 0 4
BITMAP
C0
ENDCHAR
STARTCHAR 00AE
ENCODING 174
SWIDTH 312 0
DWIDTH 5 0
BBX 4 7 0 5
BITMAP
F0
F0
D0
D0
F0
D0
F0
ENDCHAR
STARTCHAR 00AF
ENCODING 175
SWIDTH 500 0
DWIDTH 8 0
BBX 3 1 3 9
BITMAP
E0
ENDCHAR
STARTCHAR 00B0
ENCODING 176
SWIDTH 312 0
DWIDTH 5 0
BBX 5 4 0 8
BITMAP
70
88
88
70
ENDCHAR
STARTCHAR 00B1
ENCODING 177
SWIDTH 812 0
DWIDTH 13 0
BBX 9 10 2 0
BITMAP
0800
0800
0800
FF80
0800
0800
0800
0000
0000
FF80
ENDCHAR
STARTCHAR 00B2
ENCODING 178
SWIDTH 187 0
DWIDTH 3 0
BBX 3 8 0 4
BITMAP
E0
A0
A0
40
40
80
80
E0
ENDCHAR
STARTCHAR 00B3
ENCODING 179
SWIDTH 187 0
DWIDTH 3 0
BBX 3 8 0 4
BITMAP
E0
A0
20
60
20
A0
A0
40
ENDCHAR
STARTCHAR 00B4
ENCODING 180
SWIDTH 500 0
DWIDTH 8 0
BBX 2 2 3 8
BITMAP
C0
80
ENDCHAR
STARTCHAR 00B5
ENCODING 181
SWIDTH 562 0
DWIDTH 9 0
BBX 9 12 -1 -3
BITMAP
2080
2080
2100
2100
2100
4100
4300
6200
5D00
8000
8000
8000
ENDCHAR
STARTCHAR 00B6
ENCODING 182
SWIDTH 437 0
DWIDTH 7 0
BBX 5 15 1 -3
BITMAP
78
F8
F8
F8
F8
F8
78
18
18
18
18
18
18
18
18
ENDCHAR
STARTCHAR 00B7
ENCODING 183
SWIDTH 250 0
DWIDTH 4 0
BBX 3 3 1 3
BITMAP
40
E0
40
ENDCHAR
STARTCHAR 00B8
ENCODING 184
SWIDTH 500 0
DWIDTH 8 0
BBX 1 2 3 -3
BITMAP
80
80
ENDCHAR
STARTCHAR 00B9
ENCODING 185
SWIDTH 125 0
DWIDTH 2 0
BBX 2 8 0 4
BITMAP
C0
40
40
40
40
40
40
40
ENDCHAR
STARTCHAR 00BA
ENCODING 186
SWIDTH 187 0
DWIDTH 3 0
BBX 3 5 0 7
BITMAP
E0
A0
A0
A0
40
ENDCHAR
STARTCHAR 00BB
ENCODING 187
SWIDTH 250 0
DWIDTH 4 0
BBX 4 4 0 2
BITMAP
A0
A0
50
A0
ENDCHAR
STARTCHAR 00BC
ENCODING 188
SWIDTH 437 0
DWIDTH 7 0
BBX 7 12 0 0
BITMAP
44
48
48
50
50
6C
6C
2C
4C
4C
8E
84
ENDCHAR
STARTCHAR 00BD
ENCODING 189
SWIDTH 437 0
DWIDTH 7 0
BBX 6 12 0 0
BITMAP
44
44
48
48
50
5C
6C
24
44
48
88
8C
ENDCHAR
STARTCHAR 00BE
ENCODING 190
SWIDTH 500 0
DWIDTH 8 0
BBX 8 12 0 0
BITMAP
E2
A4
24
68
28
B6
F6
26
26
26
47
42
ENDCHAR
STARTCHAR 00BF
ENCODING 191
SWIDTH 312 0
DWIDTH 5 0
BBX 4 12 0 -3
BITMAP
20
20
20
20
20
20
20
E0
80
90
90
F0
ENDCHAR
STARTCHAR 00C0
ENCODING 192
SWIDTH 312 0
DWIDTH 5 0
BBX 3 14 1 1
BITMAP
40
00
E0
A0
A0
A0
A0
A0
A0
E0
A0
A0
A0
A0
ENDCHAR
STARTCHAR 00C1
ENCODING 193
SWIDTH 312 0
DWIDTH 5 0
BBX 4 14 1 1
BITMAP
60
40
F0
90
90
90
90
90
90
F0
90
90
90
90
ENDCHAR
STARTCHAR 00C2
ENCODING 194
SWIDTH 312 0
DWIDTH 5 0
BBX 4 14 1 1
BITMAP
20
00
F0
90
90
90
90
90
90
F0
90
90
90
90
ENDCHAR
STARTCHAR 00C3
ENCODING 195
SWIDTH 312 0
DWIDTH 5 0
BBX 3 14 1 0
BITMAP
40
80
E0
A0
A0
A0
A0
A0
A0
E0
A0
A0
A0
A0
ENDCHAR
STARTCHAR 00C4
ENCODING 196
SWIDTH 312 0
DWIDTH 5 0
BBX 4 14 1 0
BITMAP
60
00
F0
90
90
90
90
90
90
F0
90
90
90
90
ENDCHAR
STARTCHAR 00C5
ENCODING 197
SWIDTH 312 0
DWIDTH 5 0
BBX 4 15 1 0
BITMAP
E0
A0
E0
F0
90
90
90
90
90
90
F0
90
90
90
90
ENDCHAR
STARTCHAR 00C6
ENCODING 198
SWIDTH 500 0
DWIDTH 8 0
BBX 6 12 1 0
BITMAP
FC
90
90
90
90
9C
90
F0
90
90
90
9C
ENDCHAR
STARTCHAR 00C7
ENCODING 199
SWIDTH 312 0
DWIDTH 5 0
BBX 4 14 1 -4
BITMAP
F0
90
90
80
80
80
80
90
90
90
90
60
00
60
ENDCHAR
STARTCHAR 00C8
ENCODING 200
SWIDTH 250 0
DWIDTH 4 0
BBX 3 14 1 1
BITMAP
40
00
E0
80
80
80
80
E0
80
80
80
80
80
E0
ENDCHAR
STARTCHAR 00C9
ENCODING 201
SWIDTH 250 0
DWIDTH 4 0
BBX 3 14 1 1
BITMAP
60
40
E0
80
80
80
80
E0
80
80
80
80
80
E0
ENDCHAR
STARTCHAR 00CA
ENCODING 202
SWIDTH 250 0
DWIDTH 4 0
BBX 3 14 1 1
BITMAP
40
00
E0
80
80
80
80
E0
80
80
80
80
80
E0
ENDCHAR
STARTCHAR 00CB
ENCODING 203
SWIDTH 250 0
DWIDTH 4 0
BBX 3 14 1 0
BITMAP
A0
00
E0
80
80
80
80
E0
80
80
80
80
80
E0
ENDCHAR
STARTCHAR 00CC
ENCODING 204
SWIDTH 125 0
DWIDTH 2 0
BBX 1 14 1 1
BITMAP
80
00
80
80
80
80
80
80
80
80
80
80
80
80
ENDCHAR
STARTCHAR 00CD
ENCODING 205
SWIDTH 125 0
DWIDTH 2 0
BBX 1 14 1 1
BITMAP
80
00
80
80
80
80
80
80
80
80
80
80
80
80
ENDCHAR
STARTCHAR 00CE
ENCODING 206
SWIDTH 125 0
DWIDTH 2 0
BBX 1 14 1 1
BITMAP
80
00
80
80
80
80
80
80
80
80
80
80
80
80
ENDCHAR
STARTCHAR 00CF
ENCODING 207
SWIDTH 125 0
DWIDTH 2 0
BBX 3 14 0 0
BITMAP
A0
00
40
40
40
40
40
40
40
40
40
40
40
40
ENDCHAR
STARTCHAR 00D0
ENCODING 208
SWIDTH 312 0
DWIDTH 5 0
BBX 5 12 0 0
BITMAP
70
88
88
88
88
E8
88
88
88
50
50
30
ENDCHAR
STARTCHAR 00D1
ENCODING 209
SWIDTH 312 0
DWIDTH 5 0
BBX 5 14 1 0
BITMAP
20
10
C8
C8
E8
A8
98
98
88
88
88
88
88
88
ENDCHAR
STARTCHAR 00D2
ENCODING 210
SWIDTH 312 0
DWIDTH 5 0
BBX 4 14 1 1
BITMAP
40
00
F0
90
90
90
90
90
90
90
90
90
90
60
ENDCHAR
STARTCHAR 00D3
ENCODING 211
SWIDTH 312 0
DWIDTH 5 0
BBX 4 14 1 1
BITMAP
60
40
F0
90
90
90
90
90
90
90
90
90
90
60
ENDCHAR
STARTCHAR 00D4
ENCODING 212
SWIDTH 312 0
DWIDTH 5 0
BBX 4 14 1 1
BITMAP
20
00
F0
90
90
90
90
90
90
90
90
90
90
60
ENDCHAR
STARTCHAR 00D5
ENCODING 213
SWIDTH 312 0
DWIDTH 5 0
BBX 5 14 1 0
BITMAP
20
D0
F8
88
88
88
88
88
88
88
88
88
D8
70
ENDCHAR
STARTCHAR 00D6
ENCODING 214
SWIDTH 312 0
DWIDTH 5 0
BBX 4 14 1 0
BITMAP
60
00
F0
90
90
90
90
90
90
90
90
90
90
60
ENDCHAR
STARTCHAR 00D7
ENCODING 215
SWIDTH 812 0
DWIDTH 13 0
BBX 9 9 2 1
BITMAP
8080
4100
2200
1400
0800
1400
2200
4100
8080
ENDCHAR
STARTCHAR 00D8
ENCODING 216
SWIDTH 312 0
DWIDTH 5 0
BBX 4 12 1 0
BITMAP
F0
90
90
90
B0
B0
D0
90
90
90
90
60
ENDCHAR
STARTCHAR 00D9
ENCODING 217
SWIDTH 312 0
DWIDTH 5 0
BBX 4 14 1 1
BITMAP
40
00
90
90
90
90
90
90
90
90
90
90
90
F0
ENDCHAR
STARTCHAR 00DA
ENCODING 218
SWIDTH 312 0
DWIDTH 5 0
BBX 4 14 1 1
BITMAP
60
40
90
90
90
90
90
90
90
90
90
90
90
F0
ENDCHAR
STARTCHAR 00DB
ENCODING 219
SWIDTH 312 0
DWIDTH 5 0
BBX 4 14 1 1
BITMAP
20
00
90
90
90
90
90
90
90
90
90
90
90
F0
ENDCHAR
STARTCHAR 00DC
ENCODING 220
SWIDTH 312 0
DWIDTH 5 0
BBX 4 14 1 0
BITMAP
60
00
90
90
90
90
90
90
90
90
90
90
90
F0
ENDCHAR
STARTCHAR 00DD
ENCODING 221
SWIDTH 312 0
DWIDTH 5 0
BBX 4 14 1 1
BITMAP
60
40
90
90
90
90
90
90
90
90
60
40
40
40
ENDCHAR
STARTCHAR 00DE
ENCODING 222
SWIDTH 312 0
DWIDTH 5 0
BBX 3 12 1 0
BITMAP
80
80
E0
A0
A0
A0
A0
A0
A0
C0
80
80
ENDCHAR
STARTCHAR 00DF
ENCODING 223
SWIDTH 375 0
DWIDTH 6 0
BBX 4 12 1 0
BITMAP
F0
90
90
90
90
A0
90
90
90
90
90
A0
ENDCHAR
STARTCHAR 00E0
ENCODING 224
SWIDTH 250 0
DWIDTH 4 0
BBX 4 11 0 0
BITMAP
40
20
00
F0
10
10
F0
90
90
90
60
ENDCHAR
STARTCHAR 00E1
ENCODING 225
SWIDTH 250 0
DWIDTH 4 0
BBX 4 11 0 0
BITMAP
20
00
00
F0
10
10
F0
90
90
90
60
ENDCHAR
STARTCHAR 00E2
ENCODING 226
SWIDTH 250 0
DWIDTH 4 0
BBX 3 11 0 0
BITMAP
40
80
00
E0
20
20
E0
A0
A0
A0
40
ENDCHAR
STARTCHAR 00E3
ENCODING 227
SWIDTH 250 0
DWIDTH 4 0
BBX 3 11 0 0
BITMAP
40
40
00
E0
20
20
E0
A0
A0
A0
40
ENDCHAR
STARTCHAR 00E4
ENCODING 228
SWIDTH 250 0
DWIDTH 4 0
BBX 4 10 0 1
BITMAP
90
00
F0
10
10
F0
90
90
90
60
ENDCHAR
STARTCHAR 00E5
ENCODING 229
SWIDTH 312 0
DWIDTH 5 0
BBX 3 11 1 0
BITMAP
E0
E0
00
E0
20
20
E0
A0
A0
A0
40
ENDCHAR
STARTCHAR 00E6
ENCODING 230
SWIDTH 437 0
DWIDTH 7 0
BBX 6 8 1 0
BITMAP
FC
24
24
FC
A0
A4
A4
58
ENDCHAR
STARTCHAR 00E7
ENCODING 231
SWIDTH 250 0
DWIDTH 4 0
BBX 4 11 0 -3
BITMAP
F0
90
80
80
80
90
90
60
00
40
40
ENDCHAR
STARTCHAR 00E8
ENCODING 232
SWIDTH 250 0
DWIDTH 4 0
BBX 4 11 0 0
BITMAP
40
20
00
F0
90
90
F0
80
90
90
60
ENDCHAR
STARTCHAR 00E9
ENCODING 233
SWIDTH 250 0
DWIDTH 4 0
BBX 4 11 0 0
BITMAP
20
00
00
F0
90
90
F0
80
90
90
60
ENDCHAR
STARTCHAR 00EA
ENCODING 234
SWIDTH 250 0
DWIDTH 4 0
BBX 3 11 0 0
BITMAP
40
80
00
E0
A0
A0
E0
80
A0
A0
40
ENDCHAR
STARTCHAR 00EB
ENCODING 235
SWIDTH 250 0
DWIDTH 4 0
BBX 4 10 0 1
BITMAP
90
00
F0
90
90
F0
80
90
90
60
ENDCHAR
STARTCHAR 00EC
ENCODING 236
SWIDTH 125 0
DWIDTH 2 0
BBX 1 11 1 0
BITMAP
80
00
00
80
80
80
80
80
80
80
80
ENDCHAR
STARTCHAR 00ED
ENCODING 237
SWIDTH 125 0
DWIDTH 2 0
BBX 1 11 1 0
BITMAP
80
00
00
80
80
80
80
80
80
80
80
ENDCHAR
STARTCHAR 00EE
ENCODING 238
SWIDTH 125 0
DWIDTH 2 0
BBX 3 11 0 0
BITMAP
40
A0
00
40
40
40
40
40
40
40
40
ENDCHAR
STARTCHAR 00EF
ENCODING 239
SWIDTH 125 0
DWIDTH 2 0
BBX 3 10 0 1
BITMAP
A0
00
40
40
40
40
40
40
40
40
ENDCHAR
STARTCHAR 00F0
ENCODING 240
SWIDTH 250 0
DWIDTH 4 0
BBX 4 12 0 0
BITMAP
D0
60
D0
10
F0
90
90
90
90
90
90
60
ENDCHAR
STARTCHAR 00F1
ENCODING 241
SWIDTH 250 0
DWIDTH 4 0
BBX 3 10 1 1
BITMAP
C0
00
E0
A0
A0
A0
A0
A0
A0
A0
ENDCHAR
STARTCHAR 00F2
ENCODING 242
SWIDTH 250 0
DWIDTH 4 0
BBX 4 11 0 0
BITMAP
40
20
00
F0
90
90
90
90
90
90
60
ENDCHAR
STARTCHAR 00F3
ENCODING 243
SWIDTH 250 0
DWIDTH 4 0
BBX 4 11 0 0
BITMAP
20
00
00
F0
90
90
90
90
90
90
60
ENDCHAR
STARTCHAR 00F4
ENCODING 244
SWIDTH 250 0
DWIDTH 4 0
BBX 3 11 0 0
BITMAP
40
80
00
E0
A0
A0
A0
A0
A0
A0
40
ENDCHAR
STARTCHAR 00F5
ENCODING 245
SWIDTH 250 0
DWIDTH 4 0
BBX 3 10 0 1
BITMAP
C0
00
E0
A0
A0
A0
A0
A0
A0
40
ENDCHAR
STARTCHAR 00F6
ENCODING 246
SWIDTH 250 0
DWIDTH 4 0
BBX 4 10 0 1
BITMAP
90
00
F0
90
90
90
90
90
90
60
ENDCHAR
STARTCHAR 00F7
ENCODING 247
SWIDTH 812 0
DWIDTH 13 0
BBX 10 8 2 1
BITMAP
0C00
0C00
0000
FFC0
0000
0000
0C00
0C00
ENDCHAR
STARTCHAR 00F8
ENCODING 248
SWIDTH 312 0
DWIDTH 5 0
BBX 3 8 1 0
BITMAP
E0
A0
A0
E0
A0
A0
A0
40
ENDCHAR
STARTCHAR 00F9
ENCODING 249
SWIDTH 312 0
DWIDTH 5 0
BBX 3 11 1 0
BITMAP
C0
40
00
A0
A0
A0
A0
A0
A0
A0
E0
ENDCHAR
STARTCHAR 00FA
ENCODING 250
SWIDTH 312 0
DWIDTH 5 0
BBX 3 11 1 0
BITMAP
40
00
00
A0
A0
A0
A0
A0
A0
A0
E0
ENDCHAR
STARTCHAR 00FB
ENCODING 251
SWIDTH 312 0
DWIDTH 5 0
BBX 3 11 1 0
BITMAP
40
80
00
A0
A0
A0
A0
A0
A0
A0
E0
ENDCHAR
STARTCHAR 00FC
ENCODING 252
SWIDTH 312 0
DWIDTH 5 0
BBX 3 10 1 1
BITMAP
A0
00
A0
A0
A0
A0
A0
A0
A0
E0
ENDCHAR
STARTCHAR 00FD
ENCODING 253
SWIDTH 250 0
DWIDTH 4 0
BBX 4 14 0 -3
BITMAP
20
00
00
90
90
90
90
90
90
90
F0
10
10
10
ENDCHAR
STARTCHAR 00FE
ENCODING 254
SWIDTH 250 0
DWIDTH 4 0
BBX 4 15 0 -3
BITMAP
80
80
80
80
F0
90
90
90
90
90
A0
C0
80
80
80
ENDCHAR
STARTCHAR 00FF
ENCODING 255
SWIDTH 250 0
DWIDTH 4 0
BBX 4 13 0 -2
BITMAP
90
00
90
90
90
90
90
90
90
F0
10
10
10
ENDCHAR
STARTCHAR 0131
ENCODING 305
SWIDTH 125 0
DWIDTH 2 0
BBX 1 8 1 0
BITMAP
80
80
80
80
80
80
80
80
ENDCHAR
STARTCHAR 0141
ENCODING 321
SWIDTH 250 0
DWIDTH 4 0
BBX 4 12 0 0
BITMAP
40
40
40
40
40
60
C0
40
40
40
40
70
ENDCHAR
STARTCHAR 0142
ENCODING 322
SWIDTH 125 0
DWIDTH 2 0
BBX 2 12 0 0
BITMAP
40
40
40
40
40
40
C0
40
40
40
40
40
ENDCHAR
STARTCHAR 0152
ENCODING 338
SWIDTH 500 0
DWIDTH 8 0
BBX 6 12 1 0
BITMAP
FC
90
90
90
90
9C
90
90
90
90
90
7C
ENDCHAR
STARTCHAR 0153
ENCODING 339
SWIDTH 437 0
DWIDTH 7 0
BBX 6 8 1 0
BITMAP
FC
A4
A4
BC
A0
A4
A4
58
ENDCHAR
STARTCHAR 0160
ENCODING 352
SWIDTH 312 0
DWIDTH 5 0
BBX 4 15 1 0
BITMAP
10
20
00
F0
90
90
80
80
F0
10
10
90
90
90
60
ENDCHAR
STARTCHAR 0161
ENCODING 353
SWIDTH 250 0
DWIDTH 4 0
BBX 3 11 0 0
BITMAP
20
40
00
E0
80
80
E0
20
A0
A0
40
ENDCHAR
STARTCHAR 0178
ENCODING 376
SWIDTH 312 0
DWIDTH 5 0
BBX 5 14 1 0
BITMAP
50
00
88
88
88
88
88
88
88
D8
70
20
20
20
ENDCHAR
STARTCHAR 017D
ENCODING 381
SWIDTH 312 0
DWIDTH 5 0
BBX 4 15 0 0
BITMAP
10
20
00
F0
10
10
20
20
20
40
40
C0
80
80
F0
ENDCHAR
STARTCHAR 017E
ENCODING 382
SWIDTH 250 0
DWIDTH 4 0
BBX 3 11 0 0
BITMAP
A0
40
00
E0
20
20
40
40
80
80
E0
ENDCHAR
STARTCHAR 0192
ENCODING 402
SWIDTH 187 0
DWIDTH 3 0
BBX 3 16 0 -3
BITMAP
20
40
40
40
40
E0
40
40
40
40
40
40
40
40
40
80
ENDCHAR
STARTCHAR 02C6
ENCODING 710
SWIDTH 500 0
DWIDTH 8 0
BBX 3 2 3 9
BITMAP
40
A0
ENDCHAR
STARTCHAR 02C7
ENCODING 711
SWIDTH 500 0
DWIDTH 8 0
BBX 3 2 3 9
BITMAP
A0
40
ENDCHAR
STARTCHAR 02C9
ENCODING 713
SWIDTH 500 0
DWIDTH 8 0
BBX 3 1 3 9
BITMAP
E0
ENDCHAR
STARTCHAR 02D8
ENCODING 728
SWIDTH 500 0
DWIDTH 8 0
BBX 4 2 2 10
BITMAP
90
60
ENDCHAR
STARTCHAR 02D9
ENCODING 729
SWIDTH 500 0
DWIDTH 8 0
BBX 1 1 3 10
BITMAP
80
ENDCHAR
STARTCHAR 02DA
ENCODING 730
SWIDTH 500 0
DWIDTH 8 0
BBX 2 2 3 9
BITMAP
C0
C0
ENDCHAR
STARTCHAR 02DB
ENCODING 731
SWIDTH 500 0
DWIDTH 8 0
BBX 1 1 3 -2
BITMAP
80
ENDCHAR
STARTCHAR 02DC
ENCODING 732
SWIDTH 500 0
DWIDTH 8 0
BBX 2 1 2 9
BITMAP
C0
ENDCHAR
STARTCHAR 02DD
ENCODING 733
SWIDTH 500 0
DWIDTH 8 0
BBX 4 2 3 8
BITMAP
F0
A0
ENDCHAR
STARTCHAR 03A9
ENCODING 937
SWIDTH 562 0
DWIDTH 9 0
BBX 7 12 1 0
BITMAP
38
44
46
82
82
82
82
82
82
44
44
EE
ENDCHAR
STARTCHAR 03BC
ENCODING 956
SWIDTH 562 0
DWIDTH 9 0
BBX 9 12 -1 -3
BITMAP
2080
2080
2100
2100
2100
4100
4300
6200
5D00
8000
8000
8000
ENDCHAR
STARTCHAR 03C0
ENCODING 960
SWIDTH 500 0
DWIDTH 8 0
BBX 6 9 1 0
BITMAP
FC
48
48
48
48
48
48
48
4C
ENDCHAR
STARTCHAR 2013
ENCODING 8211
SWIDTH 250 0
DWIDTH 4 0
BBX 3 1 0 5
BITMAP
E0
ENDCHAR
STARTCHAR 2014
ENCODING 8212
SWIDTH 312 0
DWIDTH 5 0
BBX 5 1 0 4
BITMAP
F8
ENDCHAR
STARTCHAR 2018
ENCODING 8216
SWIDTH 125 0
DWIDTH 2 0
BBX 1 2 0 10
BITMAP
80
80
ENDCHAR
STARTCHAR 2019
ENCODING 8217
SWIDTH 125 0
DWIDTH 2 0
BBX 2 2 0 9
BITMAP
40
80
ENDCHAR
STARTCHAR 201A
ENCODING 8218
SWIDTH 125 0
DWIDTH 2 0
BBX 1 2 0 -2
BITMAP
80
80
ENDCHAR
STARTCHAR 201C
ENCODING 8220
SWIDTH 187 0
DWIDTH 3 0
BBX 3 2 0 10
BITMAP
A0
A0
ENDCHAR
STARTCHAR 201D
ENCODING 8221
SWIDTH 187 0
DWIDTH 3 0
BBX 3 2 0 9
BITMAP
60
A0
ENDCHAR
STARTCHAR 201E
ENCODING 8222
SWIDTH 187 0
DWIDTH 3 0
BBX 3 3 0 -2
BITMAP
A0
A0
C0
ENDCHAR
STARTCHAR 2020
ENCODING 8224
SWIDTH 187 0
DWIDTH 3 0
BBX 3 8 0 4
BITMAP
40
40
E0
40
40
40
40
40
ENDCHAR
STARTCHAR 2021
ENCODING 8225
SWIDTH 187 0
DWIDTH 3 0
BBX 3 8 0 4
BITMAP
40
40
E0
40
40
E0
40
40
ENDCHAR
STARTCHAR 2022
ENCODING 8226
SWIDTH 500 0
DWIDTH 8 0
BBX 5 5 2 2
BITMAP
20
70
F8
70
20
ENDCHAR
STARTCHAR 2026
ENCODING 8230
SWIDTH 562 0
DWIDTH 9 0
BBX 7 2 1 1
BITMAP
92
92
ENDCHAR
STARTCHAR 2030
ENCODING 8240
SWIDTH 937 0
DWIDTH 15 0
BBX 14 12 0 0
BITMAP
E100
A200
A200
A400
A400
ABDC
4A54
1254
1254
2254
4254
4188
ENDCHAR
STARTCHAR 2039
ENCODING 8249
SWIDTH 187 0
DWIDTH 3 0
BBX 2 4 0 3
BITMAP
80
80
80
40
ENDCHAR
STARTCHAR 203A
ENCODING 8250
SWIDTH 187 0
DWIDTH 3 0
BBX 2 4 0 2
BITMAP
80
80
40
80
ENDCHAR
STARTCHAR 2044
ENCODING 8260
SWIDTH 62 0
DWIDTH 1 0
BBX 6 12 -3 0
BITMAP
04
04
08
08
10
10
20
20
40
40
80
80
ENDCHAR
STARTCHAR 20AC
ENCODING 8364
SWIDTH 375 0
DWIDTH 6 0
BBX 5 12 0 0
BITMAP
78
48
48
40
F0
40
F0
40
48
48
48
30
ENDCHAR
STARTCHAR 2113
ENCODING 8467
SWIDTH 375 0
DWIDTH 6 0
BBX 4 13 1 0
BITMAP
30
50
50
50
60
60
40
40
C0
40
40
40
70
ENDCHAR
STARTCHAR 2122
ENCODING 8482
SWIDTH 500 0
DWIDTH 8 0
BBX 8 6 0 6
BITMAP
F1
5F
55
55
55
55
ENDCHAR
STARTCHAR 2126
ENCODING 8486
SWIDTH 562 0
DWIDTH 9 0
BBX 7 12 1 0
BITMAP
38
44
46
82
82
82
82
82
82
44
44
EE
ENDCHAR
STARTCHAR 212E
ENCODING 8494
SWIDTH 562 0
DWIDTH 9 0
BBX 8 9 1 0
BITMAP
3C
42
C2
C3
FF
C0
C0
42
3C
ENDCHAR
STARTCHAR 2202
ENCODING 8706
SWIDTH 437 0
DWIDTH 7 0
BBX 7 12 0 0
BITMAP
1C
02
02
1A
66
42
C2
84
84
84
88
70
ENDCHAR
STARTCHAR 2206
ENCODING 8710
SWIDTH 500 0
DWIDTH 8 0
BBX 7 12 0 0
BITMAP
18
18
18
28
24
24
24
44
42
42
42
FE
ENDCHAR
STARTCHAR 220F
ENCODING 8719
SWIDTH 562 0
DWIDTH 9 0
BBX 7 16 1 -4
BITMAP
FE
82
82
82
82
82
82
82
82
82
82
82
82
82
82
82
ENDCHAR
STARTCHAR 2211
ENCODING 8721
SWIDTH 500 0
DWIDTH 8 0
BBX 7 16 0 -4
BITMAP
7E
40
20
20
10
10
08
08
08
08
10
20
20
40
40
FE
ENDCHAR
STARTCHAR 2212
ENCODING 8722
SWIDTH 812 0
DWIDTH 13 0
BBX 9 1 2 5
BITMAP
FF80
ENDCHAR
STARTCHAR 2215
ENCODING 8725
SWIDTH 62 0
DWIDTH 1 0
BBX 6 12 -3 0
BITMAP
04
04
08
08
10
10
20
20
40
40
80
80
ENDCHAR
STARTCHAR 2219
ENCODING 8729
SWIDTH 250 0
DWIDTH 4 0
BBX 3 3 1 3
BITMAP
40
E0
40
ENDCHAR
STARTCHAR 221A
ENCODING 8730
SWIDTH 375 0
DWIDTH 6 0
BBX 6 13 0 0
BITMAP
04
04
04
08
08
08
C8
48
28
30
30
10
10
ENDCHAR
STARTCHAR 221E
ENCODING 8734
SWIDTH 562 0
DWIDTH 9 0
BBX 8 4 1 3
BITMAP
66
99
99
66
ENDCHAR
STARTCHAR 222B
ENCODING 8747
SWIDTH 375 0
DWIDTH 6 0
BBX 5 16 1 -3
BITMAP
18
20
20
20
20
20
20
20
20
20
20
20
20
20
20
C0
ENDCHAR
STARTCHAR 2248
ENCODING 8776
SWIDTH 812 0
DWIDTH 13 0
BBX 9 6 2 2
BITMAP
7880
8700
0000
0000
7880
8700
ENDCHAR
STARTCHAR 2260
ENCODING 8800
SWIDTH 812 0
DWIDTH 13 0
BBX 9 10 2 0
BITMAP
0200
0200
0400
FF80
0800
0800
FF80
1000
2000
2000
ENDCHAR
STARTCHAR 2264
ENCODING 8804
SWIDTH 812 0
DWIDTH 13 0
BBX 9 9 2 0
BITMAP
0080
0700
1800
E000
3000
0E00
0180
0000
FF80
ENDCHAR
STARTCHAR 2265
ENCODING 8805
SWIDTH 812 0
DWIDTH 13 0
BBX 9 9 2 0
BITMAP
C000
3000
0E00
0180
0600
1800
E000
0000
FF80
ENDCHAR
STARTCHAR 25CA
ENCODING 9674
SWIDTH 437 0
DWIDTH 7 0
BBX 5 12 1 0
BITMAP
20
60
60
90
90
88
88
90
90
60
60
20
ENDCHAR
STARTCHAR FB01
ENCODING 64257
SWIDTH 312 0
DWIDTH 5 0
BBX 4 12 0 0
BITMAP
10
50
40
40
F0
50
50
50
50
50
50
50
ENDCHAR
STARTCHAR FB02
ENCODING 64258
SWIDTH 312 0
DWIDTH 5 0
BBX 4 12 0 0
BITMAP
10
50
50
50
F0
50
50
50
50
50
50
50
ENDCHAR
ENDFONT
